<svg width="10" height="10" viewBox="0 0 10 10" fill="none" xmlns="http://www.w3.org/2000/svg">
<path d="M2.49984 9.16666C2.27067 9.16666 2.07456 9.08513 1.9115 8.92207C1.74817 8.75874 1.6665 8.56249 1.6665 8.33332V4.16666C1.6665 3.93749 1.74817 3.74124 1.9115 3.57791C2.07456 3.41485 2.27067 3.33332 2.49984 3.33332H2.9165V2.49999C2.9165 1.9236 3.1197 1.43221 3.52609 1.02582C3.9322 0.619712 4.42345 0.416656 4.99984 0.416656C5.57623 0.416656 6.06761 0.619712 6.474 1.02582C6.88011 1.43221 7.08317 1.9236 7.08317 2.49999V3.33332H7.49984C7.729 3.33332 7.92525 3.41485 8.08859 3.57791C8.25164 3.74124 8.33317 3.93749 8.33317 4.16666V8.33332C8.33317 8.56249 8.25164 8.75874 8.08859 8.92207C7.92525 9.08513 7.729 9.16666 7.49984 9.16666H2.49984ZM4.99984 7.08332C5.229 7.08332 5.42525 7.0018 5.58859 6.83874C5.75164 6.67541 5.83317 6.47916 5.83317 6.24999C5.83317 6.02082 5.75164 5.82457 5.58859 5.66124C5.42525 5.49818 5.229 5.41666 4.99984 5.41666C4.77067 5.41666 4.57456 5.49818 4.4115 5.66124C4.24817 5.82457 4.1665 6.02082 4.1665 6.24999C4.1665 6.47916 4.24817 6.67541 4.4115 6.83874C4.57456 7.0018 4.77067 7.08332 4.99984 7.08332ZM3.74984 3.33332H6.24984V2.49999C6.24984 2.15277 6.12831 1.85763 5.88525 1.61457C5.6422 1.37152 5.34706 1.24999 4.99984 1.24999C4.65261 1.24999 4.35748 1.37152 4.11442 1.61457C3.87136 1.85763 3.74984 2.15277 3.74984 2.49999V3.33332Z" fill="#FDE11D"/>
</svg>
