<svg width="10" height="10" viewBox="0 0 10 10" fill="none" xmlns="http://www.w3.org/2000/svg">
<path d="M2.50008 9.16663C2.27091 9.16663 2.0748 9.0851 1.91175 8.92204C1.74841 8.75871 1.66675 8.56246 1.66675 8.33329V4.16663C1.66675 3.93746 1.74841 3.74121 1.91175 3.57788C2.0748 3.41482 2.27091 3.33329 2.50008 3.33329H2.91675V2.49996C2.91675 1.92357 3.11994 1.43218 3.52633 1.02579C3.93244 0.619681 4.42369 0.416626 5.00008 0.416626C5.57647 0.416626 6.06786 0.619681 6.47425 1.02579C6.88036 1.43218 7.08342 1.92357 7.08342 2.49996V3.33329H7.50008C7.72925 3.33329 7.9255 3.41482 8.08883 3.57788C8.25189 3.74121 8.33342 3.93746 8.33342 4.16663V8.33329C8.33342 8.56246 8.25189 8.75871 8.08883 8.92204C7.9255 9.0851 7.72925 9.16663 7.50008 9.16663H2.50008ZM5.00008 7.08329C5.22925 7.08329 5.4255 7.00176 5.58883 6.83871C5.75189 6.67538 5.83342 6.47913 5.83342 6.24996C5.83342 6.02079 5.75189 5.82454 5.58883 5.66121C5.4255 5.49815 5.22925 5.41663 5.00008 5.41663C4.77091 5.41663 4.5748 5.49815 4.41175 5.66121C4.24841 5.82454 4.16675 6.02079 4.16675 6.24996C4.16675 6.47913 4.24841 6.67538 4.41175 6.83871C4.5748 7.00176 4.77091 7.08329 5.00008 7.08329ZM3.75008 3.33329H6.25008V2.49996C6.25008 2.15274 6.12855 1.8576 5.8855 1.61454C5.64244 1.37149 5.3473 1.24996 5.00008 1.24996C4.65286 1.24996 4.35772 1.37149 4.11466 1.61454C3.87161 1.8576 3.75008 2.15274 3.75008 2.49996V3.33329Z" fill="black"/>
</svg>
